# xmcd
#
# Track frame offsets: 
#        150
#        10268
#        23868
#        43717
#        74740
#        85951
#        100189
#        122845
#        136908
#        147284
#        157366
#        172333
#        187455
#        201224
#        212802
#        223455
#        235289
#        246025
#        260777
#        276050
#
# Disc length: 3914 seconds
#
# Revision: 0
# Processed by: cddbd v1.5.2PL0 Copyright (c) Steve Scherf et al.
# Submitted via: ExactAudioCopy v0.99pb4
#
DISCID=4d0f4814
DTITLE=ZZ Top - The Early Years
DYEAR=2008
DGENRE=Blues
TTITLE0=99th Floor
TTITLE1=What Are You Going To Do
TTITLE2=Comin' Back Home
TTITLE3=Joes Blues
TTITLE4=Life's A Misery
TTITLE5=Melted Like Snow
TTITLE6=A Pool For Your Stockings
TTITLE7=Chocolate Ego
TTITLE8=Shady
TTITLE9=Need Me
TTITLE10=Captain Fire
TTITLE11=Nightmare Of A Wise Man
TTITLE12=Dreams
TTITLE13=Just Plain Jane
TTITLE14=Fogue For Lady Cheriff
TTITLE15=Keep My Heart In A Rage
TTITLE16=Wonder Man
TTITLE17=All I Saw Was You
TTITLE18=Love Against The Wall
TTITLE19=Mercury Blue
EXTD=
EXTT0=
EXTT1=
EXTT2=
EXTT3=
EXTT4=
EXTT5=
EXTT6=
EXTT7=
EXTT8=
EXTT9=
EXTT10=
EXTT11=
EXTT12=
EXTT13=
EXTT14=
EXTT15=
EXTT16=
EXTT17=
EXTT18=
EXTT19=
PLAYORDER=
